<svg xmlns="http://www.w3.org/2000/svg" width="106.703" height="61" viewBox="0 0 106.703 61">
    <path data-name="합치기 6" d="M60.642 60a4.589 4.589 0 0 1-3.862-2.183 4.5 4.5 0 0 1-1.646.625l-.063.011a4.576 4.576 0 0 1-.741.062 4.494 4.494 0 0 1-4.373-3.537 299.164 299.164 0 0 0-1.339-5.909c-.5 2.062-.991 4.187-1.357 5.907a4.493 4.493 0 0 1-4.372 3.54 4.662 4.662 0 0 1-.746-.062l-.058-.011a4.515 4.515 0 0 1-2.621-1.448 2.779 2.779 0 0 1-.313.277 3.411 3.411 0 0 1-6.479.563q-.06-.117-.111-.239t-.11-.237l-.1-.2q-.072-.063-.139-.13a4.574 4.574 0 0 1-3.33 1.451h-.063a4.592 4.592 0 0 1-3.945-2.261q-.084-.123-.16-.251t-.17-.268q-.078-.115-.149-.235-.086-.126-.165-.259t-.167-.263q-.081-.12-.155-.244c-.055-.081-.108-.165-.158-.249s-.11-.166-.16-.252-.109-.166-.16-.251-.112-.172-.165-.26-.1-.16-.154-.242-.112-.169-.163-.256-.108-.165-.159-.25-.113-.172-.166-.261-.107-.164-.157-.248-.1-.157-.152-.238-.121-.183-.177-.277c-.052-.077-.1-.156-.149-.236s-.112-.17-.164-.256-.112-.172-.165-.26-.1-.159-.153-.241-.109-.165-.16-.25-.114-.173-.166-.262-.1-.158-.153-.239-.119-.181-.174-.275c-.051-.075-.1-.151-.145-.228s-.112-.17-.164-.257-.118-.178-.172-.271c-.051-.076-.1-.153-.147-.231s-.112-.171-.165-.258-.109-.166-.16-.251-.109-.166-.16-.251-.109-.166-.16-.252-.115-.175-.168-.265-.107-.163-.157-.247-.106-.162-.156-.246-.106-.161-.156-.245-.115-.175-.168-.265-.1-.159-.154-.241-.118-.179-.172-.271a5.246 5.246 0 0 1-.895-2.906 1170.01 1170.01 0 0 1-.015-4.258h-2.847a4.481 4.481 0 0 1-3.193-1.325 4.547 4.547 0 0 1-.688-.884q-.133-.18-.247-.371a4.543 4.543 0 0 1-.254-.385q-.128-.176-.239-.362-.128-.174-.238-.358a4.584 4.584 0 0 1-.259-.391q-.128-.175-.238-.36a4.519 4.519 0 0 1-.253-.382q-.127-.174-.237-.358A4.469 4.469 0 0 1 8.6 33.4a4.435 4.435 0 0 1-.245-.368q-.135-.184-.251-.378-.129-.178-.241-.364c-.087-.12-.17-.244-.245-.37s-.172-.247-.249-.375-.168-.242-.244-.368-.17-.243-.245-.37-.172-.246-.249-.374-.166-.239-.241-.364c-.09-.123-.173-.249-.251-.378s-.168-.242-.244-.368-.171-.244-.247-.372-.168-.24-.243-.366-.172-.248-.25-.377-.167-.24-.242-.365q-.136-.185-.253-.382a4.855 4.855 0 0 1-.236-.355q-.134-.183-.25-.376c-.089-.123-.173-.249-.251-.378s-.169-.243-.244-.369-.167-.241-.243-.366-.168-.242-.245-.367-.168-.242-.244-.368-.174-.251-.252-.38-.167-.242-.243-.368-.17-.244-.246-.37-.172-.247-.249-.375-.163-.235-.237-.357q-.138-.188-.256-.385a5.238 5.238 0 0 1-.239-.361q-.138-.188-.256-.385A5.126 5.126 0 0 1 0 18.88v-.08a5.19 5.19 0 0 1 5.069-5.168c1.32-.022 5.531-.032 8.731-.032 3.555 0 8.192.009 9.607.037v-.009a3.1 3.1 0 0 1-.137-.414 3.142 3.142 0 0 1-.145-.437 3.141 3.141 0 0 1-.141-.429 2.983 2.983 0 0 1-.14-.423 3.017 3.017 0 0 1-.144-.425 3.072 3.072 0 0 1-.141-.424 3.163 3.163 0 0 1-.145-.439 3.316 3.316 0 0 1-.138-.419 3.164 3.164 0 0 1-.142-.431 3.156 3.156 0 0 1 1.277-3.895 8.585 8.585 0 0 1 16.3 0 3.167 3.167 0 0 1 1.5 2.433 3.1 3.1 0 0 1 .066.43 3.293 3.293 0 0 1 .067.433 3.191 3.191 0 0 1 .065.428 3.1 3.1 0 0 1 .067.438 3.036 3.036 0 0 1 .064.417 3.142 3.142 0 0 1 .068.444 3.139 3.139 0 0 1 .065.425 3.215 3.215 0 0 1 .065.429 2.984 2.984 0 0 1 .067.432 3.081 3.081 0 0 1 .066.431 3.108 3.108 0 0 1 .066.431 3.152 3.152 0 0 1 .065.425 3.051 3.051 0 0 1 .069.446 3.116 3.116 0 0 1 .063.413 3.048 3.048 0 0 1 .069.447 2.988 2.988 0 0 1 .063.414 3.036 3.036 0 0 1 .068.437 3.185 3.185 0 0 1 .055.317 6.632 6.632 0 0 1 5.141-2.428h.1a6.628 6.628 0 0 1 6.452 5.054c.321 1.31.68 2.764 1.059 4.3.444 1.8.919 3.721 1.395 5.659v-.009c.005-.129.016-.257.032-.383s.015-.25.03-.372.015-.257.031-.384.017-.271.033-.4.015-.236.029-.353c.005-.139.017-.277.034-.414.005-.121.015-.241.029-.36s.016-.265.033-.4.017-.261.033-.389.015-.239.028-.356c.006-.14.017-.277.034-.413s.016-.25.032-.373.015-.25.03-.372.016-.265.033-.4.016-.255.032-.381.015-.242.029-.361c.005-.14.017-.278.034-.415s.017-.255.032-.38.016-.244.03-.364.017-.263.033-.393.016-.258.032-.385.015-.243.029-.362c.006-.14.017-.278.034-.414.005-.117.015-.233.028-.347.006-.14.017-.278.034-.415s.016-.252.032-.377.015-.249.03-.371a5.276 5.276 0 0 1 5.231-5.026h.089a5.286 5.286 0 0 1 5.242 5.162c.03 1.5.051 3.222.063 5.142.026-.132.056-.261.092-.389s.054-.253.088-.377.057-.27.094-.4.052-.243.085-.361c.026-.136.057-.269.093-.4s.056-.259.091-.386.055-.257.09-.383.056-.263.092-.392.053-.249.087-.371.057-.268.093-.4.055-.256.089-.381.057-.264.093-.394.054-.253.088-.377.057-.264.093-.394.053-.251.088-.374.057-.267.093-.4a4.989 4.989 0 0 1 4.814-4.049c2.188-.049 7.294-.078 13.327-.078 4.8 0 10.841.021 13.4.08a4.757 4.757 0 0 1 4.661 4.7c.041 2.765.044 7.122.007 10.137 0 .169-.014.34-.027.509l-.011.163a4.212 4.212 0 0 1-.431 1.635 4.678 4.678 0 0 1-.6.932 5.17 5.17 0 0 1-.246.327l-.04.057a4.876 4.876 0 0 1 1.39 3.431v.063a4.861 4.861 0 0 1-1.278 3.261c-.078.1-.161.2-.247.293s-.154.19-.237.281-.163.2-.25.3-.166.2-.254.3-.154.19-.237.28-.157.195-.241.287-.163.2-.251.3q-.107.136-.221.263a4.9 4.9 0 0 1 3.215 4.578v.069a4.871 4.871 0 0 1-1.585 3.59c-.081.085-.164.167-.25.246s-.165.167-.251.246-.155.156-.235.23-.159.162-.242.239-.166.168-.252.247-.162.165-.248.243-.159.161-.242.237-.155.158-.238.233-.155.159-.237.233-.168.172-.257.253-.159.16-.242.237-.154.156-.234.23-.165.168-.251.247-.164.166-.25.244-.16.162-.244.239-.151.154-.23.226-.166.17-.255.25-.159.162-.243.238-.163.167-.25.245-.154.157-.236.232-.163.166-.25.245-.159.162-.243.238-.16.164-.245.241-.157.16-.24.236-.157.16-.239.236-.168.171-.257.251-.159.161-.242.238-.159.161-.243.238-.156.159-.239.233-.165.169-.252.248-.154.158-.236.232-.162.166-.248.244-.16.163-.245.24-.154.157-.235.231-.167.172-.256.251-.157.159-.239.235-.159.163-.243.239-.165.168-.252.247-.155.158-.237.233-.163.166-.249.245a4.265 4.265 0 0 1-3.047 1.347c-2.159.029-7.374.05-12.682.05-3.857 0-6.963-.01-8.524-.031a4.735 4.735 0 0 1-2.863-.922 4.123 4.123 0 0 1-1.236-1.732 5.142 5.142 0 0 1-.3-1.879v-.053a45.845 45.845 0 0 1-.007-.832l-.037.138c-.019.084-.04.167-.064.249s-.044.18-.069.268-.037.15-.058.224q-.031.135-.069.268t-.065.248q-.027.118-.061.235t-.061.239A4.614 4.614 0 0 1 60.715 60z" transform="translate(.5 .5)" style="stroke:transparent;stroke-miterlimit:10;fill:#ff5050"/>
    <path data-name="패스 589" d="M104.315 44.309c-1.156-.009-20.982.007-22.182.024-.217 0-.7.016-.724-.275a2.536 2.536 0 0 0-.277-1.427 2.693 2.693 0 0 0-1.174-.948 4.528 4.528 0 0 0-1.871-.383 3.494 3.494 0 0 0-2.946 1.284 3.208 3.208 0 0 0-.362 1.931c0 .8-.013 1.627 0 2.431a4.711 4.711 0 0 0 .2 1.563 2.781 2.781 0 0 0 .839 1.213 3.534 3.534 0 0 0 2.108.62c5.075.065 21.568.044 26.445-.023a2.964 2.964 0 0 0 2.922-2.969v-.069a2.989 2.989 0 0 0-2.976-2.972" transform="translate(-3 -1.431)" style="fill:#fff"/>
    <path data-name="패스 590" d="M104.346 33.612c-1.806-.016-8.389-.033-9.857-.037a.549.549 0 0 1-.552-.375c0-.009-.008-.01-.01-.019-.311-1.449-2.216-1.878-3.1-1.878h-.869c-.748 0-2.788.42-3.1 1.863-.006.012-.015.017-.02.033-.108.4-.578.376-.578.376h.006c-1.332.012-8.282.016-8.541.019a2.981 2.981 0 0 0-2.948 2.984v.062a2.984 2.984 0 0 0 2.966 2.985c5.139.032 21.409.032 26.6 0a2.972 2.972 0 0 0 2.953-2.961V36.6a2.974 2.974 0 0 0-2.945-2.992" transform="translate(-3 -.964)" style="fill:#fff"/>
    <path data-name="패스 591" d="M77.677 29.305a2.934 2.934 0 0 1-2.9-2.938V26.3a2.912 2.912 0 0 1 2.887-2.925c1.413-.01 21 0 22.659 0a.6.6 0 0 0 0-1.192c-.565 0-21.108.046-22.489.032a3.092 3.092 0 0 1-3.058-3.1v-.075a3.118 3.118 0 0 1 3.045-3.137c4.732-.1 22.068-.1 26.642 0a2.86 2.86 0 0 1 2.8 2.821c.041 2.791.043 7.086.007 10.085 0 .193-.023.389-.034.582a2.325 2.325 0 0 1-.249.909 2.83 2.83 0 0 1-2.556 1.584h-.777a2.831 2.831 0 0 1-2.774-2.211.512.512 0 0 0-.5-.334 1.651 1.651 0 0 0-.194 0z" transform="translate(-3 -.239)" style="fill:#fff"/>
    <path data-name="패스 592" d="M18.261 22.869c-.922.022-12.053.035-13 .035A3.259 3.259 0 0 1 2 19.641v-.079A3.258 3.258 0 0 1 5.2 16.3c2.461-.043 15.9-.042 18.294.006a2.894 2.894 0 0 1 2.839 2.851c.09 5.868.092 18.658.009 24.828a3.36 3.36 0 0 1-3.349 3.321h-.076a3.36 3.36 0 0 1-3.35-3.347c-.031-5.506-.027-15.873.015-19.8a1.274 1.274 0 0 0-1.316-1.293" transform="translate(.407 -.26)" style="fill:#fff"/>
    <path data-name="패스 593" d="M54.057 19.8c1.688 6.871 4.406 17.74 5.7 23.6a3.235 3.235 0 0 1-2.627 3.893l-.078.012a3.205 3.205 0 0 1-3.668-2.492c-.959-4.494-2.62-11.423-3.578-15.236a.417.417 0 0 0-.809 0c-.976 3.808-2.689 10.742-3.645 15.238a3.206 3.206 0 0 1-3.669 2.493l-.077-.013a3.234 3.234 0 0 1-2.624-3.895c1.3-5.86 4.09-16.73 5.777-23.6a4.732 4.732 0 0 1 4.6-3.6h.1a4.732 4.732 0 0 1 4.6 3.6" transform="translate(-1.321 -.256)" style="fill:#fff"/>
    <path data-name="패스 594" d="M69.431 34.661a.428.428 0 0 0-.4.431c0 4.223-.033 8.205-.083 10.834a3.333 3.333 0 0 1-3.358 3.263h-.08a3.326 3.326 0 0 1-3.31-3.271c-.1-6.378-.1-20.365 0-26.792a3.348 3.348 0 0 1 3.337-3.3h.078a3.353 3.353 0 0 1 3.338 3.294c.045 2.291.071 5.24.074 8.817a.423.423 0 0 0 .4.432 3.121 3.121 0 0 1 3.128 3.106v.077a3.119 3.119 0 0 1-3.128 3.107" transform="translate(-2.408 -.239)" style="fill:#fff"/>
    <path data-name="패스 595" d="M33 51.013a2.359 2.359 0 0 1-2.357-2.356V46.3h4.714v2.355A2.358 2.358 0 0 1 33 51.013" transform="translate(-.934 -1.665)" style="fill:#fff"/>
    <path d="M35.811 45.8h-5.666v2.833a2.833 2.833 0 0 0 5.666 0V45.8zm-.953.953v1.88a1.88 1.88 0 0 1-3.759 0v-1.88h3.759" transform="translate(-.911 -1.642)" style="fill:#ff5050"/>
    <path data-name="패스 597" d="M30.849 46.941a1.572 1.572 0 0 1-1.574-1.5l-.8-30.1h8.858l-.8 30.094a1.576 1.576 0 0 1-1.575 1.514z" transform="translate(-.832 -.217)" style="fill:#fff"/>
    <path data-name="r" d="M37.794 14.833h-9.837l.027.979.79 29.605a2.054 2.054 0 0 0 2.051 1.977h4.1a2.048 2.048 0 0 0 2.05-1.959l.792-29.623zm-.979.953-.79 29.606a1.1 1.1 0 0 1-1.1 1.049h-4.1a1.1 1.1 0 0 1-1.1-1.049l-.791-29.606h7.879" transform="translate(-.808 -.193)" style="fill:#ff5050"/>
    <path data-name="패스 599" d="M32.766 15.813a7.156 7.156 0 1 1 7.157-7.156 7.165 7.165 0 0 1-7.157 7.156" transform="translate(-.698 .432)" style="fill:#fff"/>
    <path data-name="r" d="M32.742 1a7.633 7.633 0 1 0 7.633 7.633A7.641 7.641 0 0 0 32.742 1m0 .953a6.68 6.68 0 1 1-6.68 6.68 6.681 6.681 0 0 1 6.68-6.68" transform="translate(-.675 .455)" style="fill:#ff5050"/>
    <path data-name="패스 601" d="M26.223 10.669a1.747 1.747 0 0 1 0-3.494H39.2a1.747 1.747 0 1 1 0 3.494z" transform="translate(-.645 .166)" style="fill:#fff"/>
    <path data-name="r" d="M39.178 6.675H26.2a2.224 2.224 0 0 0 0 4.448h12.978a2.224 2.224 0 0 0 0-4.448m0 .953a1.271 1.271 0 0 1 0 2.541H26.2a1.271 1.271 0 0 1 0-2.541h12.978" transform="translate(-.622 .189)" style="fill:#ff5050"/>
    <path data-name="사각형 1" d="M1.477 0h8.4a1.476 1.476 0 0 1 1.476 1.476v.033a1.476 1.476 0 0 1-1.476 1.476h-8.4A1.475 1.475 0 0 1 0 1.51v-.033A1.477 1.477 0 0 1 1.477 0z" transform="translate(26.39 14.275)" style="fill:#fff"/>
    <path data-name="r" d="M37.084 13.95h-8.537a1.885 1.885 0 0 0-1.884 1.884v.172a1.885 1.885 0 0 0 1.884 1.884h8.538a1.886 1.886 0 0 0 1.884-1.884v-.172a1.886 1.886 0 0 0-1.884-1.884m0 .953a.93.93 0 0 1 .93.93v.172a.93.93 0 0 1-.93.93h-8.538a.93.93 0 0 1-.93-.93v-.172a.93.93 0 0 1 .93-.93h8.538" transform="translate(-.748 -.151)" style="fill:#ff5050"/>
</svg>
